<svg xmlns="http://www.w3.org/2000/svg" width="18.333" height="18.333" viewBox="0 0 18.333 18.333">
  <g id="checkmark_circle" transform="translate(-1.833 -1.833)">
    <g id="Icon_color" data-name="Icon color" fill="#fff">
      <path d="M 11.00000095367432 19.66667175292969 C 6.22118091583252 19.66667175292969 2.333330869674683 15.77882099151611 2.333330869674683 11.00000095367432 C 2.333330869674683 6.22118091583252 6.22118091583252 2.333330869674683 11.00000095367432 2.333330869674683 C 13.31496047973633 2.333330869674683 15.49134063720703 3.23482084274292 17.12826156616211 4.871740818023682 C 18.76518058776855 6.508660793304443 19.66667175292969 8.685041427612305 19.66667175292969 11.00000095367432 C 19.66667175292969 15.77882099151611 15.77882099151611 19.66667175292969 11.00000095367432 19.66667175292969 Z" stroke="none"/>
      <path d="M 11.00000095367432 2.833330154418945 C 6.496880531311035 2.833330154418945 2.833330154418945 6.496880531311035 2.833330154418945 11.00000095367432 C 2.833330154418945 15.50312042236328 6.496880531311035 19.16667175292969 11.00000095367432 19.16667175292969 C 15.50312042236328 19.16667175292969 19.16667175292969 15.50312042236328 19.16667175292969 11.00000095367432 C 19.16667175292969 8.818600654602051 18.31719017028809 6.767770767211914 16.77470016479492 5.225290298461914 C 15.23223114013672 3.682811737060547 13.18140125274658 2.833330154418945 11.00000095367432 2.833330154418945 M 11.00000095367432 1.833330154418945 C 13.43115139007568 1.833330154418945 15.76273155212402 2.799100875854492 17.4818115234375 4.518190383911133 C 19.20090103149414 6.237271308898926 20.16667175292969 8.568850517272949 20.16667175292969 11.00000095367432 C 20.16667175292969 16.0626106262207 16.0626106262207 20.16667175292969 11.00000095367432 20.16667175292969 C 5.93739128112793 20.16667175292969 1.833330154418945 16.0626106262207 1.833330154418945 11.00000095367432 C 1.833330154418945 5.93739128112793 5.93739128112793 1.833330154418945 11.00000095367432 1.833330154418945 Z" stroke="none" fill="#f6b233"/>
    </g>
  </g>
</svg>
