<svg xmlns="http://www.w3.org/2000/svg" width="18.333" height="18.333" viewBox="0 0 18.333 18.333">
  <g id="checkmark_circle" transform="translate(-1.833 -1.833)">
    <path id="Icon_color" data-name="Icon color" d="M11,20.166A9.167,9.167,0,1,1,20.166,11,9.177,9.177,0,0,1,11,20.166ZM7.653,11.141a.438.438,0,0,0-.32.139l-.486.486a.457.457,0,0,0,0,.651L9.028,14.57a.439.439,0,0,0,.642,0l5.152-5.152a.459.459,0,0,0,0-.633L14.335,8.3a.459.459,0,0,0-.642,0L9.348,12.645,7.973,11.28A.438.438,0,0,0,7.653,11.141Z" fill="#f6b233"/>
  </g>
</svg>
